<svg width="201" height="44" viewBox="0 0 201 44" fill="none" xmlns="http://www.w3.org/2000/svg">
<path fill-rule="evenodd" clip-rule="evenodd" d="M12.3335 14.6592L31.2476 0.309009C31.4313 0.139873 31.6637 0.0340652 31.9112 0.00693262C32.1586 -0.0202 32.4082 0.0327459 32.6238 0.158107C32.8393 0.283468 33.0096 0.474727 33.1099 0.704116C33.2102 0.933505 33.2353 1.18909 33.1816 1.43383L30.2954 25.1022C30.1896 27.3147 28.7034 27.2577 28.0809 26.3955C27.1582 24.2028 25.1898 21.9358 22.4906 20.1421C22.8956 20.1655 23.3 20.0863 23.6667 19.9116C27.5716 17.7537 25.987 14.461 26.5505 10.695C23.5978 13.0661 19.9685 13.3361 20.0669 17.8181C20.099 18.2142 20.2275 18.5962 20.4409 18.9305L20.4606 18.9627C17.5867 17.5183 14.6636 16.9435 12.3261 17.2284C11.2656 17.1244 10.4831 15.8583 12.3335 14.6592Z" fill="white"/>
<path fill-rule="evenodd" clip-rule="evenodd" d="M7.87005 20.9522C2.72015 24.5695 -0.891918 29.9855 0.193179 31.2788C1.51203 32.8421 2.09517 30.6916 3.89629 32.7653C5.6974 34.8391 3.70929 40.3244 8.00046 43.0993C12.5352 45.4555 16.2531 40.981 18.9425 41.5112C21.6318 42.0414 20.0743 43.6271 22.0772 43.9888C23.7258 44.2911 26.5775 38.4341 27.1164 32.136C27.515 27.4658 25.2562 24.1632 21.558 21.7302C21.9074 22.5627 21.713 24.2499 19.2697 28.0604C15.8594 33.3823 13.1897 35.4932 12.5697 35.1215C11.9496 34.7499 12.422 31.3828 15.2935 25.7488C17.3505 21.7128 18.7013 20.6995 19.5945 20.588C15.6577 18.5886 11.6863 18.269 7.87005 20.9522Z" fill="white"/>
<path d="M48.9694 25.955H52.5773L54.6389 21.0643H64.1166L66.1496 25.955H69.872L61.0528 5.55316H57.7886L48.9694 25.955ZM55.9274 17.91L59.3634 9.80716L62.8281 17.91H55.9274Z" fill="white"/>
<path d="M75.5999 25.955H79.1218V20.0804L82.2429 16.8393L89.0863 25.955H93.3527L84.6481 14.4084L92.9805 5.69785H88.6568L79.1218 15.8843V5.69785H75.5999V25.955Z" fill="white"/>
<path d="M104.429 25.955H107.98V8.99687H114.337V5.69785H98.0728V8.99687H104.429V25.955Z" fill="white"/>
<path d="M121.708 25.955H125.23V5.69785H121.708V25.955Z" fill="white"/>
<path d="M142.192 26.3023C145.943 26.3023 148.234 24.9132 150.324 22.7138L148.062 20.3987C146.344 22.0193 144.769 23.0322 142.307 23.0322C138.47 23.0322 135.692 19.791 135.692 15.8264C135.692 11.8039 138.47 8.62067 142.307 8.62067C144.597 8.62067 146.315 9.63352 147.919 11.1383L150.181 8.50491C148.262 6.65283 146.029 5.35059 142.335 5.35059C136.265 5.35059 131.999 10.0676 131.999 15.8264C131.999 21.701 136.351 26.3023 142.192 26.3023Z" fill="white"/>
<path d="M165.321 26.3023C171.477 26.3023 175.83 21.5274 175.83 15.8264C175.83 10.0676 171.534 5.35059 165.378 5.35059C159.222 5.35059 154.87 10.1255 154.87 15.8264C154.87 21.5852 159.165 26.3023 165.321 26.3023ZM165.378 23.0322C161.398 23.0322 158.563 19.7621 158.563 15.8264C158.563 11.8329 161.341 8.62067 165.321 8.62067C169.301 8.62067 172.136 11.8907 172.136 15.8264C172.136 19.82 169.358 23.0322 165.378 23.0322Z" fill="white"/>
<path d="M181.23 25.955H184.695V11.4856L190.966 20.9775H191.08L197.408 11.4277V25.955H200.93V5.69785H197.179L191.08 15.2766L184.981 5.69785H181.23V25.955Z" fill="white"/>
<path d="M49.395 37.8891H51.458C52.4513 37.8891 53.1071 37.4578 53.1071 36.6532C53.1071 36.0288 52.7442 35.7263 52.2221 35.546C52.5532 35.3722 52.8588 35.0825 52.8588 34.5418C52.8588 34.2264 52.7569 33.9818 52.5595 33.7822C52.3048 33.5248 51.9037 33.3831 51.3943 33.3831H49.395V37.8891ZM50.1654 35.2821V34.0848H51.2924C51.7954 34.0848 52.0756 34.3036 52.0756 34.6577C52.0756 35.0825 51.7381 35.2821 51.2351 35.2821H50.1654ZM50.1654 37.1875V35.9516H51.407C52.0247 35.9516 52.3239 36.1768 52.3239 36.5566C52.3239 36.975 51.9992 37.1875 51.4643 37.1875H50.1654Z" fill="white"/>
<path d="M59.6889 37.8891H60.4912L60.9496 36.8012H63.0572L63.5093 37.8891H64.337L62.3759 33.351H61.65L59.6889 37.8891ZM61.2361 36.0996L62.0002 34.2972L62.7707 36.0996H61.2361Z" fill="white"/>
<path d="M74.4549 37.8891V36.6918L75.1553 35.8872L76.4861 37.8891H77.4285L75.6647 35.3014L77.3393 33.3831H76.4033L74.4549 35.7263V33.3831H73.6781V35.7263L71.7297 33.3831H70.7937L72.462 35.3014L70.7046 37.8891H71.6469L72.9777 35.8872L73.6781 36.6918V37.8891H74.4549Z" fill="white"/>
<path d="M84.1774 37.8891H87.5139V37.181H84.9606V35.9709H87.1955V35.2628H84.9606V34.0912H87.4821V33.3831H84.1774V37.8891Z" fill="white"/>
<path d="M94.5238 37.8891H95.307V35.9902H97.4337V37.8891H98.2169V33.3831H97.4337V35.2563H95.307V33.3831H94.5238V37.8891Z" fill="white"/>
<path d="M113.432 37.8891H114.215V36.4408H115.1C116.081 36.4408 116.883 35.9129 116.883 34.9023C116.883 33.9818 116.227 33.3831 115.189 33.3831H113.432V37.8891ZM114.215 35.7263V34.1041H115.126C115.712 34.1041 116.087 34.3809 116.087 34.9087C116.087 35.3915 115.718 35.7263 115.126 35.7263H114.215Z" fill="white"/>
<path d="M123.766 37.8891H127.102V37.181H124.549V35.9709H126.784V35.2628H124.549V34.0912H127.071V33.3831H123.766V37.8891Z" fill="white"/>
<path d="M135.628 33.3059C134.838 33.3059 134.335 33.5763 133.909 33.9882L134.329 34.5032C134.666 34.1749 135.048 34.0011 135.577 34.0011C136.074 34.0011 136.417 34.2522 136.417 34.6319C136.417 35.0568 136.067 35.2885 135.5 35.2885H135.004V35.9451H135.507C136.086 35.9451 136.526 36.1382 136.526 36.6017C136.526 37.0265 136.124 37.2776 135.653 37.2776C135.048 37.2776 134.571 37.0652 134.17 36.6789L133.743 37.2261C134.24 37.7089 134.806 37.9664 135.672 37.9664C136.666 37.9664 137.309 37.3935 137.309 36.6468C137.309 36.061 136.933 35.7198 136.436 35.5653C136.831 35.398 137.194 35.0954 137.194 34.5161C137.194 33.8144 136.551 33.3059 135.628 33.3059Z" fill="white"/>
<path d="M145.08 37.9599C145.659 37.9599 146.118 37.6703 146.494 36.9042L148.232 33.3831H147.385L146.162 36.003L144.774 33.3831H143.896L145.755 36.7948C145.532 37.1617 145.252 37.284 145.054 37.284C144.857 37.284 144.685 37.2454 144.507 37.1424L144.208 37.7346C144.469 37.8762 144.736 37.9599 145.08 37.9599Z" fill="white"/>
<path d="M155.054 37.9406C155.933 37.9406 156.448 37.3677 156.448 34.5032V34.0977H157.989V37.8891H158.772V33.3831H155.716V34.2715C155.716 36.9686 155.296 37.2583 154.844 37.2583C154.748 37.2583 154.646 37.239 154.589 37.2197L154.513 37.8698C154.634 37.902 154.882 37.9406 155.054 37.9406Z" fill="white"/>
<path d="M166.003 37.8891H167.799C168.831 37.8891 169.48 37.3227 169.48 36.415C169.48 35.5074 168.805 35.0053 167.805 35.0053H166.78V33.3831H166.003V37.8891ZM166.78 37.181V35.6941H167.774C168.366 35.6941 168.703 35.9451 168.703 36.4086C168.703 36.9171 168.366 37.181 167.786 37.181H166.78Z" fill="white"/>
<path d="M177.476 37.8891H178.266V34.117H179.679V33.3831H176.063V34.117H177.476V37.8891Z" fill="white"/>
<path d="M186.208 37.8891H187.011L187.469 36.8012H189.577L190.029 37.8891H190.857L188.895 33.351H188.17L186.208 37.8891ZM187.756 36.0996L188.52 34.2972L189.29 36.0996H187.756Z" fill="white"/>
<path d="M198.797 37.8891H199.586V34.117H201V33.3831H197.383V34.117H198.797V37.8891Z" fill="white"/>
</svg>
